<svg xmlns="http://www.w3.org/2000/svg" viewBox="0 0 1048 660" width="1048" height="660" style="background:#ffffff;font-family:'Microsoft YaHei',system-ui,sans-serif"><defs><marker id="arr" viewBox="0 0 10 10" refX="9" refY="5" markerWidth="7" markerHeight="7" orient="auto-start-reverse"><path d="M0,0 L10,5 L0,10 z" fill="#57606a"/></marker></defs><rect x="50" y="50" width="260" height="560" fill="#f6f8fa" stroke="#d0d7de" stroke-width="1"/><rect x="50" y="50" width="260" height="44" fill="#0969da"/><text x="180" y="78" text-anchor="middle" font-size="13.5" font-weight="700" fill="#ffffff">员工</text><rect x="394" y="50" width="260" height="560" fill="#f6f8fa" stroke="#d0d7de" stroke-width="1"/><rect x="394" y="50" width="260" height="44" fill="#bc4c00"/><text x="524" y="78" text-anchor="middle" font-size="13.5" font-weight="700" fill="#ffffff">部门经理</text><rect x="738" y="50" width="260" height="560" fill="#f6f8fa" stroke="#d0d7de" stroke-width="1"/><rect x="738" y="50" width="260" height="44" fill="#1a7f37"/><text x="868" y="78" text-anchor="middle" font-size="13.5" font-weight="700" fill="#ffffff">财务部</text><path d="M 180 181 L 180 253" fill="none" stroke="#57606a" stroke-width="1.4" marker-end="url(#arr)"/><path d="M 268 280 L 352 280 L 352 156 L 426 156" fill="none" stroke="#57606a" stroke-width="1.4" marker-end="url(#arr)"/><text x="352" y="149" text-anchor="middle" font-size="10.5" fill="#57606a" paint-order="stroke" stroke="#ffffff" stroke-width="3">提交</text><path d="M 622 156 L 696 156 L 696 156 L 780 156" fill="none" stroke="#57606a" stroke-width="1.4" marker-end="url(#arr)"/><text x="696" y="149" text-anchor="middle" font-size="10.5" fill="#57606a" paint-order="stroke" stroke="#ffffff" stroke-width="3">通过</text><path d="M 426 156 L 352 156 L 352 280 L 268 280" fill="none" stroke="#57606a" stroke-width="1.4" stroke-dasharray="6 4" marker-end="url(#arr)"/><text x="352" y="273" text-anchor="middle" font-size="10.5" fill="#57606a" paint-order="stroke" stroke="#ffffff" stroke-width="3">驳回</text><path d="M 868 183 L 868 235" fill="none" stroke="#57606a" stroke-width="1.4" marker-end="url(#arr)"/><path d="M 868 325 L 868 377" fill="none" stroke="#57606a" stroke-width="1.4" marker-end="url(#arr)"/><text x="868" y="370" text-anchor="middle" font-size="10.5" fill="#57606a" paint-order="stroke" stroke="#ffffff" stroke-width="3">合规</text><path d="M 868 235 L 868 183" fill="none" stroke="#57606a" stroke-width="1.4" stroke-dasharray="6 4" marker-end="url(#arr)"/><text x="868" y="176" text-anchor="middle" font-size="10.5" fill="#57606a" paint-order="stroke" stroke="#ffffff" stroke-width="3">不合规</text><path d="M 780 404 L 696 404 L 696 404 L 268 404" fill="none" stroke="#57606a" stroke-width="1.4" stroke-dasharray="6 4" marker-end="url(#arr)"/><text x="696" y="397" text-anchor="middle" font-size="10.5" fill="#57606a" paint-order="stroke" stroke="#ffffff" stroke-width="3">打款</text><path d="M 180 431 L 180 503" fill="none" stroke="#57606a" stroke-width="1.4" marker-end="url(#arr)"/><g transform="translate(0,0)"><g fill="#1f883d" stroke="#1a7f37" stroke-width="2"><rect x="85" y="131" width="190" height="50" rx="25" ry="25"/></g><text x="180" y="160.5" text-anchor="middle" font-size="12" font-weight="600" fill="#ffffff">报销申请人：开始：提交报销申请</text></g><g transform="translate(0,0)"><g fill="#ddf4ff" stroke="#0969da" stroke-width="1.5"><rect x="92" y="253" width="176" height="54" rx="4"/></g><text x="180" y="284.5" text-anchor="middle" font-size="12" font-weight="600" fill="#0a3069">报销申请人：填写报销单并附票据</text></g><g transform="translate(0,0)"><g fill="#ddf4ff" stroke="#0969da" stroke-width="1.5"><rect x="92" y="377" width="176" height="54" rx="4"/></g><text x="180" y="408.5" text-anchor="middle" font-size="12" font-weight="600" fill="#0a3069">报销申请人：确认收款</text></g><g transform="translate(0,0)"><g fill="#1f883d" stroke="#1a7f37" stroke-width="2"><rect x="85" y="503" width="190" height="50" rx="25" ry="25"/></g><text x="180" y="532.5" text-anchor="middle" font-size="12" font-weight="600" fill="#ffffff">报销申请人：结束：报销完成</text></g><g transform="translate(0,0)"><g fill="#fff8c5" stroke="#9a6700" stroke-width="1.5"><polygon points="524,111 622,156 524,201 426,156"/></g><text x="524" y="160.5" text-anchor="middle" font-size="11.5" font-weight="600" fill="#633c01">审批通过？</text></g><g transform="translate(0,0)"><g fill="#dafbe1" stroke="#1a7f37" stroke-width="1.5"><rect x="780" y="129" width="176" height="54" rx="4"/></g><text x="868" y="160.5" text-anchor="middle" font-size="12" font-weight="600" fill="#0a3d1e">财务审核员：审核票据合规性</text></g><g transform="translate(0,0)"><g fill="#fff8c5" stroke="#9a6700" stroke-width="1.5"><polygon points="868,235 966,280 868,325 770,280"/></g><text x="868" y="284.5" text-anchor="middle" font-size="11.5" font-weight="600" fill="#633c01">财务审核员：票据合规？</text></g><g transform="translate(0,0)"><g fill="#dafbe1" stroke="#1a7f37" stroke-width="1.5"><rect x="780" y="377" width="176" height="54" rx="4"/></g><text x="868" y="408.5" text-anchor="middle" font-size="12" font-weight="600" fill="#0a3d1e">出纳：打款</text></g><text x="50" y="24" font-size="15" font-weight="700" fill="#24292f">报销流程</text></svg>