<svg xmlns="http://www.w3.org/2000/svg" viewBox="0 0 1736 412" width="1736" height="412" style="background:#ffffff;font-family:'Microsoft YaHei',system-ui,sans-serif"><defs><marker id="arr" viewBox="0 0 10 10" refX="9" refY="5" markerWidth="7" markerHeight="7" orient="auto-start-reverse"><path d="M0,0 L10,5 L0,10 z" fill="#59636e"/></marker></defs><rect x="50" y="50" width="260" height="312" fill="#ffffff" stroke="#59636e" stroke-width="1" opacity="0.55"/><rect x="50" y="50" width="260" height="44" fill="#0969da"/><text x="180" y="78" text-anchor="middle" font-size="13.5" font-weight="700" fill="#ffffff">HR</text><rect x="394" y="50" width="260" height="312" fill="#ffffff" stroke="#59636e" stroke-width="1" opacity="0.55"/><rect x="394" y="50" width="260" height="44" fill="#bc4c00"/><text x="524" y="78" text-anchor="middle" font-size="13.5" font-weight="700" fill="#ffffff">财务部</text><rect x="738" y="50" width="260" height="312" fill="#ffffff" stroke="#59636e" stroke-width="1" opacity="0.55"/><rect x="738" y="50" width="260" height="44" fill="#1a7f37"/><text x="868" y="78" text-anchor="middle" font-size="13.5" font-weight="700" fill="#ffffff">行政部</text><rect x="1082" y="50" width="260" height="312" fill="#ffffff" stroke="#59636e" stroke-width="1" opacity="0.55"/><rect x="1082" y="50" width="260" height="44" fill="#8250df"/><text x="1212" y="78" text-anchor="middle" font-size="13.5" font-weight="700" fill="#ffffff">员工</text><rect x="1426" y="50" width="260" height="312" fill="#ffffff" stroke="#59636e" stroke-width="1" opacity="0.55"/><rect x="1426" y="50" width="260" height="44" fill="#0e7490"/><text x="1556" y="78" text-anchor="middle" font-size="13.5" font-weight="700" fill="#ffffff">管理层</text><path d="M 275 156 L 352 156 L 352 156 L 1458 156" fill="none" stroke="#59636e" stroke-width="1.4" marker-end="url(#arr)" data-edge="1" data-eidx="0"/><path d="M 1458 156 L 1384 156 L 1384 156 L 612 156" fill="none" stroke="#59636e" stroke-width="1.4" stroke-dasharray="6 4" marker-end="url(#arr)" data-edge="1" data-eidx="1"/><text x="1384" y="149" text-anchor="middle" font-size="10.5" fill="#59636e" paint-order="stroke" stroke="#ffffff" stroke-width="3">通过</text><path d="M 1458 156 L 1384 156 L 1384 156 L 275 156" fill="none" stroke="#59636e" stroke-width="1.4" stroke-dasharray="6 4" marker-end="url(#arr)" data-edge="1" data-eidx="2"/><text x="1384" y="149" text-anchor="middle" font-size="10.5" fill="#59636e" paint-order="stroke" stroke="#ffffff" stroke-width="3">退回</text><path d="M 612 156 L 696 156 L 696 156 L 780 156" fill="none" stroke="#59636e" stroke-width="1.4" marker-end="url(#arr)" data-edge="1" data-eidx="3"/><path d="M 956 156 L 1040 156 L 1040 156 L 1124 156" fill="none" stroke="#59636e" stroke-width="1.4" marker-end="url(#arr)" data-edge="1" data-eidx="4"/><path d="M 1124 156 L 1040 156 L 1040 280 L 275 280" fill="none" stroke="#59636e" stroke-width="1.4" stroke-dasharray="6 4" marker-end="url(#arr)" data-edge="1" data-eidx="5"/><g transform="translate(85,131)" data-id="N1"><g fill="#1f883d" stroke="#1a7f37" stroke-width="2"><rect x="0" y="0" width="190" height="50" rx="25" ry="25"/></g><text x="95" y="29.5" text-anchor="middle" font-size="12" font-weight="600" fill="#ffffff">福利专员：制定福利方案</text></g><g transform="translate(85,255)" data-id="N6"><g fill="#1f883d" stroke="#1a7f37" stroke-width="2"><rect x="0" y="0" width="190" height="50" rx="25" ry="25"/></g><text x="95" y="29.5" text-anchor="middle" font-size="12" font-weight="600" fill="#ffffff">福利专员：发放记录归档</text></g><g transform="translate(436,129)" data-id="N3"><g fill="#fff1e5" stroke="#bc4c00" stroke-width="1.5"><rect x="0" y="0" width="176" height="54" rx="4"/></g><text x="88" y="31.5" text-anchor="middle" font-size="12" font-weight="600" fill="#571f00">出纳：采购与付款</text></g><g transform="translate(780,129)" data-id="N4"><g fill="#dafbe1" stroke="#1a7f37" stroke-width="1.5"><rect x="0" y="0" width="176" height="54" rx="4"/></g><text x="88" y="31.5" text-anchor="middle" font-size="12" font-weight="600" fill="#0a3d1e">行政专员：到货清点</text></g><g transform="translate(1124,129)" data-id="N5"><g fill="#fbefff" stroke="#8250df" stroke-width="1.5"><rect x="0" y="0" width="176" height="54" rx="4"/></g><text x="88" y="31.5" text-anchor="middle" font-size="12" font-weight="600" fill="#3e1f6f">领取签收</text></g><g transform="translate(1458,111)" data-id="N2"><g fill="#fff8c5" stroke="#9a6700" stroke-width="1.5"><polygon points="98,0 196,45 98,90 0,45"/></g><text x="98" y="49.5" text-anchor="middle" font-size="11.5" font-weight="600" fill="#633c01">福利方案审批通过?</text></g><text x="50" y="24" font-size="15" font-weight="700" fill="#1f2328">员工福利发放流程</text><text x="370" y="24" font-size="10.5" fill="#59636e">模式=swimlane</text></svg>