<svg xmlns="http://www.w3.org/2000/svg" viewBox="0 0 1048 660" width="1048" height="660" style="background:#ffffff;font-family:'Microsoft YaHei',system-ui,sans-serif"><defs><marker id="arr" viewBox="0 0 10 10" refX="9" refY="5" markerWidth="7" markerHeight="7" orient="auto-start-reverse"><path d="M0,0 L10,5 L0,10 z" fill="#59636e"/></marker></defs><rect x="50" y="50" width="260" height="560" fill="#ffffff" stroke="#59636e" stroke-width="1" opacity="0.55"/><rect x="50" y="50" width="260" height="44" fill="#0969da"/><text x="180" y="78" text-anchor="middle" font-size="13.5" font-weight="700" fill="#ffffff">员工</text><rect x="394" y="50" width="260" height="560" fill="#ffffff" stroke="#59636e" stroke-width="1" opacity="0.55"/><rect x="394" y="50" width="260" height="44" fill="#bc4c00"/><text x="524" y="78" text-anchor="middle" font-size="13.5" font-weight="700" fill="#ffffff">行政部</text><rect x="738" y="50" width="260" height="560" fill="#ffffff" stroke="#59636e" stroke-width="1" opacity="0.55"/><rect x="738" y="50" width="260" height="44" fill="#1a7f37"/><text x="868" y="78" text-anchor="middle" font-size="13.5" font-weight="700" fill="#ffffff">参会人</text><path d="M 275 156 L 352 156 L 352 156 L 426 156" fill="none" stroke="#59636e" stroke-width="1.4" marker-end="url(#arr)" data-edge="1" data-eidx="0"/><path d="M 524 201 L 524 253" fill="none" stroke="#59636e" stroke-width="1.4" marker-end="url(#arr)" data-edge="1" data-eidx="1"/><text x="524" y="246" text-anchor="middle" font-size="10.5" fill="#59636e" paint-order="stroke" stroke="#ffffff" stroke-width="3">可用</text><path d="M 426 156 L 352 156 L 352 156 L 275 156" fill="none" stroke="#59636e" stroke-width="1.4" stroke-dasharray="6 4" marker-end="url(#arr)" data-edge="1" data-eidx="2"/><text x="352" y="149" text-anchor="middle" font-size="10.5" fill="#59636e" paint-order="stroke" stroke="#ffffff" stroke-width="3">冲突</text><path d="M 612 280 L 696 280 L 696 156 L 780 156" fill="none" stroke="#59636e" stroke-width="1.4" marker-end="url(#arr)" data-edge="1" data-eidx="3"/><path d="M 780 156 L 696 156 L 696 280 L 278 280" fill="none" stroke="#59636e" stroke-width="1.4" stroke-dasharray="6 4" marker-end="url(#arr)" data-edge="1" data-eidx="4"/><path d="M 278 280 L 352 280 L 352 404 L 436 404" fill="none" stroke="#59636e" stroke-width="1.4" marker-end="url(#arr)" data-edge="1" data-eidx="5"/><text x="352" y="397" text-anchor="middle" font-size="10.5" fill="#59636e" paint-order="stroke" stroke="#ffffff" stroke-width="3">释放</text><path d="M 278 280 L 352 280 L 352 280 L 436 280" fill="none" stroke="#59636e" stroke-width="1.4" marker-end="url(#arr)" data-edge="1" data-eidx="6"/><text x="352" y="273" text-anchor="middle" font-size="10.5" fill="#59636e" paint-order="stroke" stroke="#ffffff" stroke-width="3">续订</text><path d="M 524 431 L 524 503" fill="none" stroke="#59636e" stroke-width="1.4" marker-end="url(#arr)" data-edge="1" data-eidx="7"/><g transform="translate(0,0)" data-id="N1"><g fill="#1f883d" stroke="#1a7f37" stroke-width="2"><rect x="85" y="131" width="190" height="50" rx="25" ry="25"/></g><text x="180" y="160.5" text-anchor="middle" font-size="12" font-weight="600" fill="#ffffff">申请人：提交会议室预订申请</text></g><g transform="translate(0,0)" data-id="N5"><g fill="#fff8c5" stroke="#9a6700" stroke-width="1.5"><polygon points="180,235 278,280 180,325 82,280"/></g><text x="180" y="284.5" text-anchor="middle" font-size="11.5" font-weight="600" fill="#633c01">申请人：会议结束后释放?</text></g><g transform="translate(0,0)" data-id="N2"><g fill="#fff8c5" stroke="#9a6700" stroke-width="1.5"><polygon points="524,111 622,156 524,201 426,156"/></g><text x="524" y="160.5" text-anchor="middle" font-size="11.5" font-weight="600" fill="#633c01">行政专员：会议室可用?</text></g><g transform="translate(0,0)" data-id="N3"><g fill="#fff1e5" stroke="#bc4c00" stroke-width="1.5"><rect x="436" y="253" width="176" height="54" rx="4"/></g><text x="524" y="284.5" text-anchor="middle" font-size="12" font-weight="600" fill="#571f00">行政专员：确认预订并发通知</text></g><g transform="translate(0,0)" data-id="N6"><g fill="#fff1e5" stroke="#bc4c00" stroke-width="1.5"><rect x="436" y="377" width="176" height="54" rx="4"/></g><text x="524" y="408.5" text-anchor="middle" font-size="12" font-weight="600" fill="#571f00">行政专员：设备检查与场地复原</text></g><g transform="translate(0,0)" data-id="N7"><g fill="#1f883d" stroke="#1a7f37" stroke-width="2"><rect x="429" y="503" width="190" height="50" rx="25" ry="25"/></g><text x="524" y="532.5" text-anchor="middle" font-size="12" font-weight="600" fill="#ffffff">行政专员：预订记录归档</text></g><g transform="translate(0,0)" data-id="N4"><g fill="#dafbe1" stroke="#1a7f37" stroke-width="1.5"><rect x="780" y="129" width="176" height="54" rx="4"/></g><text x="868" y="160.5" text-anchor="middle" font-size="12" font-weight="600" fill="#0a3d1e">按约参会</text></g><text x="50" y="24" font-size="15" font-weight="700" fill="#1f2328">会议室预订流程</text><text x="370" y="24" font-size="10.5" fill="#59636e">模式=swimlane</text></svg>