<svg xmlns="http://www.w3.org/2000/svg" viewBox="0 0 1736 908" width="1736" height="908" style="background:#ffffff;font-family:'Microsoft YaHei',system-ui,sans-serif"><defs><marker id="arr" viewBox="0 0 10 10" refX="9" refY="5" markerWidth="7" markerHeight="7" orient="auto-start-reverse"><path d="M0,0 L10,5 L0,10 z" fill="#57606a"/></marker></defs><rect x="50" y="50" width="260" height="808" fill="#f6f8fa" stroke="#d0d7de" stroke-width="1"/><rect x="50" y="50" width="260" height="44" fill="#0969da"/><text x="180" y="78" text-anchor="middle" font-size="13.5" font-weight="700" fill="#ffffff">候选人</text><rect x="394" y="50" width="260" height="808" fill="#f6f8fa" stroke="#d0d7de" stroke-width="1"/><rect x="394" y="50" width="260" height="44" fill="#bc4c00"/><text x="524" y="78" text-anchor="middle" font-size="13.5" font-weight="700" fill="#ffffff">HR</text><rect x="738" y="50" width="260" height="808" fill="#f6f8fa" stroke="#d0d7de" stroke-width="1"/><rect x="738" y="50" width="260" height="44" fill="#1a7f37"/><text x="868" y="78" text-anchor="middle" font-size="13.5" font-weight="700" fill="#ffffff">用人部门</text><rect x="1082" y="50" width="260" height="808" fill="#f6f8fa" stroke="#d0d7de" stroke-width="1"/><rect x="1082" y="50" width="260" height="44" fill="#8250df"/><text x="1212" y="78" text-anchor="middle" font-size="13.5" font-weight="700" fill="#ffffff">IT</text><rect x="1426" y="50" width="260" height="808" fill="#f6f8fa" stroke="#d0d7de" stroke-width="1"/><rect x="1426" y="50" width="260" height="44" fill="#0e7490"/><text x="1556" y="78" text-anchor="middle" font-size="13.5" font-weight="700" fill="#ffffff">财务部</text><path d="M 275 156 L 352 156 L 352 156 L 436 156" fill="none" stroke="#57606a" stroke-width="1.4" marker-end="url(#arr)"/><text x="352" y="149" text-anchor="middle" font-size="10.5" fill="#57606a" paint-order="stroke" stroke="#ffffff" stroke-width="3">投递</text><path d="M 524 183 L 524 235" fill="none" stroke="#57606a" stroke-width="1.4" marker-end="url(#arr)"/><path d="M 524 325 L 524 377" fill="none" stroke="#57606a" stroke-width="1.4" marker-end="url(#arr)"/><text x="524" y="370" text-anchor="middle" font-size="10.5" fill="#57606a" paint-order="stroke" stroke="#ffffff" stroke-width="3">通过</text><path d="M 426 280 L 352 280 L 352 156 L 275 156" fill="none" stroke="#57606a" stroke-width="1.4" stroke-dasharray="6 4" marker-end="url(#arr)"/><text x="352" y="149" text-anchor="middle" font-size="10.5" fill="#57606a" paint-order="stroke" stroke="#ffffff" stroke-width="3">淘汰</text><path d="M 612 404 L 696 404 L 696 156 L 780 156" fill="none" stroke="#57606a" stroke-width="1.4" marker-end="url(#arr)"/><text x="696" y="149" text-anchor="middle" font-size="10.5" fill="#57606a" paint-order="stroke" stroke="#ffffff" stroke-width="3">推荐复试</text><path d="M 868 183 L 868 235" fill="none" stroke="#57606a" stroke-width="1.4" marker-end="url(#arr)"/><path d="M 770 280 L 696 280 L 696 528 L 612 528" fill="none" stroke="#57606a" stroke-width="1.4" stroke-dasharray="6 4" marker-end="url(#arr)"/><text x="696" y="521" text-anchor="middle" font-size="10.5" fill="#57606a" paint-order="stroke" stroke="#ffffff" stroke-width="3">通过</text><path d="M 770 280 L 696 280 L 696 156 L 275 156" fill="none" stroke="#57606a" stroke-width="1.4" stroke-dasharray="6 4" marker-end="url(#arr)"/><text x="696" y="149" text-anchor="middle" font-size="10.5" fill="#57606a" paint-order="stroke" stroke="#ffffff" stroke-width="3">不通过</text><path d="M 524 555 L 524 625" fill="none" stroke="#57606a" stroke-width="1.4" marker-end="url(#arr)"/><text x="524" y="618" text-anchor="middle" font-size="10.5" fill="#57606a" paint-order="stroke" stroke="#ffffff" stroke-width="3">批准</text><path d="M 524 501 L 524 431" fill="none" stroke="#57606a" stroke-width="1.4" stroke-dasharray="6 4" marker-end="url(#arr)"/><text x="524" y="424" text-anchor="middle" font-size="10.5" fill="#57606a" paint-order="stroke" stroke="#ffffff" stroke-width="3">驳回·调整</text><path d="M 436 652 L 352 652 L 352 280 L 268 280" fill="none" stroke="#57606a" stroke-width="1.4" stroke-dasharray="6 4" marker-end="url(#arr)"/><text x="352" y="273" text-anchor="middle" font-size="10.5" fill="#57606a" paint-order="stroke" stroke="#ffffff" stroke-width="3">Offer</text><path d="M 268 280 L 352 280 L 352 156 L 1124 156" fill="none" stroke="#57606a" stroke-width="1.4" marker-end="url(#arr)"/><text x="352" y="149" text-anchor="middle" font-size="10.5" fill="#57606a" paint-order="stroke" stroke="#ffffff" stroke-width="3">入职办理</text><path d="M 268 280 L 352 280 L 352 652 L 436 652" fill="none" stroke="#57606a" stroke-width="1.4" stroke-dasharray="6 4" marker-end="url(#arr)"/><text x="352" y="645" text-anchor="middle" font-size="10.5" fill="#57606a" paint-order="stroke" stroke="#ffffff" stroke-width="3">拒绝 Offer</text><path d="M 1300 156 L 1384 156 L 1384 156 L 1468 156" fill="none" stroke="#57606a" stroke-width="1.4" marker-end="url(#arr)"/><path d="M 1468 156 L 1384 156 L 1384 776 L 619 776" fill="none" stroke="#57606a" stroke-width="1.4" stroke-dasharray="6 4" marker-end="url(#arr)"/><g transform="translate(0,0)"><g fill="#1f883d" stroke="#1a7f37" stroke-width="2"><rect x="85" y="131" width="190" height="50" rx="25" ry="25"/></g><text x="180" y="160.5" text-anchor="middle" font-size="12" font-weight="600" fill="#ffffff">开始：投递简历</text></g><g transform="translate(0,0)"><g fill="#ddf4ff" stroke="#0969da" stroke-width="1.5"><rect x="92" y="253" width="176" height="54" rx="4"/></g><text x="180" y="284.5" text-anchor="middle" font-size="12" font-weight="600" fill="#0a3069">确认并办理入职</text></g><g transform="translate(0,0)"><g fill="#fff1e5" stroke="#bc4c00" stroke-width="1.5"><rect x="436" y="129" width="176" height="54" rx="4"/></g><text x="524" y="160.5" text-anchor="middle" font-size="12" font-weight="600" fill="#571f00">招聘专员：简历初筛</text></g><g transform="translate(0,0)"><g fill="#fff8c5" stroke="#9a6700" stroke-width="1.5"><polygon points="524,235 622,280 524,325 426,280"/></g><text x="524" y="284.5" text-anchor="middle" font-size="11.5" font-weight="600" fill="#633c01">招聘专员：初筛通过?</text></g><g transform="translate(0,0)"><g fill="#fff1e5" stroke="#bc4c00" stroke-width="1.5"><rect x="436" y="377" width="176" height="54" rx="4"/></g><text x="524" y="408.5" text-anchor="middle" font-size="12" font-weight="600" fill="#571f00">招聘专员：电话 / 视频面试</text></g><g transform="translate(0,0)"><g fill="#fff1e5" stroke="#bc4c00" stroke-width="1.5"><rect x="436" y="501" width="176" height="54" rx="4"/></g><text x="524" y="532.5" text-anchor="middle" font-size="12" font-weight="600" fill="#571f00">HR 主管：薪资定级审批</text></g><g transform="translate(0,0)"><g fill="#fff1e5" stroke="#bc4c00" stroke-width="1.5"><rect x="436" y="625" width="176" height="54" rx="4"/></g><text x="524" y="656.5" text-anchor="middle" font-size="12" font-weight="600" fill="#571f00">招聘专员：发放 Offer</text></g><g transform="translate(0,0)"><g fill="#1f883d" stroke="#1a7f37" stroke-width="2"><rect x="429" y="751" width="190" height="50" rx="25" ry="25"/></g><text x="524" y="780.5" text-anchor="middle" font-size="12" font-weight="600" fill="#ffffff">招聘专员：结束：正式入职</text></g><g transform="translate(0,0)"><g fill="#dafbe1" stroke="#1a7f37" stroke-width="1.5"><rect x="780" y="129" width="176" height="54" rx="4"/></g><text x="868" y="160.5" text-anchor="middle" font-size="12" font-weight="600" fill="#0a3d1e">部门经理：用人部门复试</text></g><g transform="translate(0,0)"><g fill="#fff8c5" stroke="#9a6700" stroke-width="1.5"><polygon points="868,235 966,280 868,325 770,280"/></g><text x="868" y="284.5" text-anchor="middle" font-size="11.5" font-weight="600" fill="#633c01">部门经理：复试通过?</text></g><g transform="translate(0,0)"><g fill="#fbefff" stroke="#8250df" stroke-width="1.5"><rect x="1124" y="129" width="176" height="54" rx="4"/></g><text x="1212" y="160.5" text-anchor="middle" font-size="12" font-weight="600" fill="#3e1f6f">IT 管理员：开通账号与权限</text></g><g transform="translate(0,0)"><g fill="#e6f6f6" stroke="#0e7490" stroke-width="1.5"><rect x="1468" y="129" width="176" height="54" rx="4"/></g><text x="1556" y="160.5" text-anchor="middle" font-size="12" font-weight="600" fill="#155e75">薪酬专员：录入薪酬档案</text></g><text x="50" y="24" font-size="15" font-weight="700" fill="#24292f">员工入职流程</text><text x="370" y="24" font-size="10.5" fill="#57606a">模式=swimlane</text></svg>