<svg xmlns="http://www.w3.org/2000/svg" viewBox="0 0 1736 660" width="1736" height="660" style="background:#ffffff;font-family:'Microsoft YaHei',system-ui,sans-serif"><defs><marker id="arr" viewBox="0 0 10 10" refX="9" refY="5" markerWidth="7" markerHeight="7" orient="auto-start-reverse"><path d="M0,0 L10,5 L0,10 z" fill="#59636e"/></marker></defs><g data-lane="客户" data-lane-depth="0"><rect x="50" y="50" width="260" height="660" fill="#ffffff" stroke="#59636e" stroke-width="1" opacity="0.55"/><rect x="50" y="50" width="260" height="44" fill="#0969da"/><text x="180" y="76" text-anchor="middle" font-size="13.5" font-weight="700" fill="#ffffff">客户</text><rect x="50" y="94" width="260" height="616" fill="transparent" stroke="#59636e" stroke-width="0.8" stroke-dasharray="4 3" opacity="0.45" data-lane-role="客户"/><text x="180" y="109" text-anchor="middle" font-size="10.5" font-weight="600" fill="undefined">客户</text></g><g data-lane="销售部" data-lane-depth="0"><rect x="394" y="50" width="260" height="536" fill="#ffffff" stroke="#59636e" stroke-width="1" opacity="0.55"/><rect x="394" y="50" width="260" height="44" fill="#bc4c00"/><text x="524" y="76" text-anchor="middle" font-size="13.5" font-weight="700" fill="#ffffff">销售部</text><rect x="394" y="94" width="260" height="492" fill="transparent" stroke="#59636e" stroke-width="0.8" stroke-dasharray="4 3" opacity="0.45" data-lane-role="销售部"/><text x="524" y="109" text-anchor="middle" font-size="10.5" font-weight="600" fill="undefined">销售部</text></g><g data-lane="信用部" data-lane-depth="0"><rect x="738" y="50" width="260" height="288" fill="#ffffff" stroke="#59636e" stroke-width="1" opacity="0.55"/><rect x="738" y="50" width="260" height="44" fill="#1a7f37"/><text x="868" y="76" text-anchor="middle" font-size="13.5" font-weight="700" fill="#ffffff">信用部</text><rect x="738" y="94" width="260" height="244" fill="transparent" stroke="#59636e" stroke-width="0.8" stroke-dasharray="4 3" opacity="0.45" data-lane-role="信用部"/><text x="868" y="109" text-anchor="middle" font-size="10.5" font-weight="600" fill="undefined">信用部</text></g><g data-lane="仓储部" data-lane-depth="0"><rect x="1082" y="50" width="260" height="412" fill="#ffffff" stroke="#59636e" stroke-width="1" opacity="0.55"/><rect x="1082" y="50" width="260" height="44" fill="#8250df"/><text x="1212" y="76" text-anchor="middle" font-size="13.5" font-weight="700" fill="#ffffff">仓储部</text><rect x="1082" y="94" width="260" height="368" fill="transparent" stroke="#59636e" stroke-width="0.8" stroke-dasharray="4 3" opacity="0.45" data-lane-role="仓储部"/><text x="1212" y="109" text-anchor="middle" font-size="10.5" font-weight="600" fill="undefined">仓储部</text></g><g data-lane="财务部" data-lane-depth="0"><rect x="1426" y="50" width="260" height="660" fill="#ffffff" stroke="#59636e" stroke-width="1" opacity="0.55"/><rect x="1426" y="50" width="260" height="44" fill="#0e7490"/><text x="1556" y="76" text-anchor="middle" font-size="13.5" font-weight="700" fill="#ffffff">财务部</text><rect x="1426" y="94" width="260" height="616" fill="transparent" stroke="#59636e" stroke-width="0.8" stroke-dasharray="4 3" opacity="0.45" data-lane-role="财务部"/><text x="1556" y="109" text-anchor="middle" font-size="10.5" font-weight="600" fill="undefined">财务部</text></g><path d="M 275 156 L 352 156 L 352 156 L 436 156" fill="none" stroke="#59636e" stroke-width="1.4" marker-end="url(#arr)" data-edge="1" data-eidx="0"/><text x="352" y="149" text-anchor="middle" font-size="10.5" fill="#59636e" paint-order="stroke" stroke="#ffffff" stroke-width="3">询单</text><path d="M 524 183 L 524 235" fill="none" stroke="#59636e" stroke-width="1.4" marker-end="url(#arr)" data-edge="1" data-eidx="1"/><path d="M 622 280 L 696 280 L 696 156 L 780 156" fill="none" stroke="#59636e" stroke-width="1.4" marker-end="url(#arr)" data-edge="1" data-eidx="2"/><text x="696" y="149" text-anchor="middle" font-size="10.5" fill="#59636e" paint-order="stroke" stroke="#ffffff" stroke-width="3">未超限</text><path d="M 524 235 L 524 183" fill="none" stroke="#59636e" stroke-width="1.4" stroke-dasharray="6 4" marker-end="url(#arr)" data-edge="1" data-eidx="3"/><text x="524" y="176" text-anchor="middle" font-size="10.5" fill="#59636e" paint-order="stroke" stroke="#ffffff" stroke-width="3">驳回·修改</text><path d="M 780 156 L 696 156 L 696 404 L 612 404" fill="none" stroke="#59636e" stroke-width="1.4" stroke-dasharray="6 4" marker-end="url(#arr)" data-edge="1" data-eidx="4"/><text x="696" y="397" text-anchor="middle" font-size="10.5" fill="#59636e" paint-order="stroke" stroke="#ffffff" stroke-width="3">信用通过</text><path d="M 780 156 L 696 156 L 696 156 L 612 156" fill="none" stroke="#59636e" stroke-width="1.4" stroke-dasharray="6 4" marker-end="url(#arr)" data-edge="1" data-eidx="5"/><text x="696" y="149" text-anchor="middle" font-size="10.5" fill="#59636e" paint-order="stroke" stroke="#ffffff" stroke-width="3">信用不通过·补充</text><path d="M 436 404 L 352 404 L 352 280 L 268 280" fill="none" stroke="#59636e" stroke-width="1.4" stroke-dasharray="6 4" marker-end="url(#arr)" data-edge="1" data-eidx="6"/><text x="352" y="273" text-anchor="middle" font-size="10.5" fill="#59636e" paint-order="stroke" stroke="#ffffff" stroke-width="3">发送订单</text><path d="M 268 280 L 352 280 L 352 156 L 1124 156" fill="none" stroke="#59636e" stroke-width="1.4" marker-end="url(#arr)" data-edge="1" data-eidx="7"/><text x="352" y="149" text-anchor="middle" font-size="10.5" fill="#59636e" paint-order="stroke" stroke="#ffffff" stroke-width="3">确认</text><path d="M 1212 183 L 1212 253" fill="none" stroke="#59636e" stroke-width="1.4" marker-end="url(#arr)" data-edge="1" data-eidx="8"/><path d="M 1124 280 L 1040 280 L 1040 404 L 268 404" fill="none" stroke="#59636e" stroke-width="1.4" stroke-dasharray="6 4" marker-end="url(#arr)" data-edge="1" data-eidx="9"/><text x="1040" y="397" text-anchor="middle" font-size="10.5" fill="#59636e" paint-order="stroke" stroke="#ffffff" stroke-width="3">发货</text><path d="M 268 404 L 352 404 L 352 156 L 1468 156" fill="none" stroke="#59636e" stroke-width="1.4" marker-end="url(#arr)" data-edge="1" data-eidx="10"/><text x="352" y="149" text-anchor="middle" font-size="10.5" fill="#59636e" paint-order="stroke" stroke="#ffffff" stroke-width="3">验收完成</text><path d="M 268 404 L 352 404 L 352 280 L 1124 280" fill="none" stroke="#59636e" stroke-width="1.4" stroke-dasharray="6 4" marker-end="url(#arr)" data-edge="1" data-eidx="11"/><text x="352" y="273" text-anchor="middle" font-size="10.5" fill="#59636e" paint-order="stroke" stroke="#ffffff" stroke-width="3">退货</text><path d="M 1556 183 L 1556 253" fill="none" stroke="#59636e" stroke-width="1.4" marker-end="url(#arr)" data-edge="1" data-eidx="12"/><path d="M 1468 280 L 1384 280 L 1384 528 L 268 528" fill="none" stroke="#59636e" stroke-width="1.4" stroke-dasharray="6 4" marker-end="url(#arr)" data-edge="1" data-eidx="13"/><text x="1384" y="521" text-anchor="middle" font-size="10.5" fill="#59636e" paint-order="stroke" stroke="#ffffff" stroke-width="3">对账单</text><path d="M 1468 280 L 1384 280 L 1384 528 L 268 528" fill="none" stroke="#59636e" stroke-width="1.4" stroke-dasharray="6 4" marker-end="url(#arr)" data-edge="1" data-eidx="14"/><text x="1384" y="521" text-anchor="middle" font-size="10.5" fill="#59636e" paint-order="stroke" stroke="#ffffff" stroke-width="3">对账差异·催收</text><path d="M 268 528 L 352 528 L 352 404 L 1468 404" fill="none" stroke="#59636e" stroke-width="1.4" marker-end="url(#arr)" data-edge="1" data-eidx="15"/><text x="352" y="397" text-anchor="middle" font-size="10.5" fill="#59636e" paint-order="stroke" stroke="#ffffff" stroke-width="3">付款</text><path d="M 268 528 L 352 528 L 352 404 L 1468 404" fill="none" stroke="#59636e" stroke-width="1.4" stroke-dasharray="6 4" marker-end="url(#arr)" data-edge="1" data-eidx="16"/><text x="352" y="397" text-anchor="middle" font-size="10.5" fill="#59636e" paint-order="stroke" stroke="#ffffff" stroke-width="3">逾期催收</text><path d="M 1556 431 L 1556 503" fill="none" stroke="#59636e" stroke-width="1.4" marker-end="url(#arr)" data-edge="1" data-eidx="17"/><g transform="translate(85,131)" data-id="N1"><g fill="#1f883d" stroke="#1a7f37" stroke-width="2"><rect x="0" y="0" width="190" height="50" rx="25" ry="25"/></g><text x="95" y="29.5" text-anchor="middle" font-size="12" font-weight="600" fill="#ffffff">开始：发起订单需求</text></g><g transform="translate(92,253)" data-id="N6"><g fill="#ddf4ff" stroke="#0969da" stroke-width="1.5"><rect x="0" y="0" width="176" height="54" rx="4"/></g><text x="88" y="31.5" text-anchor="middle" font-size="12" font-weight="600" fill="#0a3069">确认订单</text></g><g transform="translate(92,377)" data-id="N9"><g fill="#ddf4ff" stroke="#0969da" stroke-width="1.5"><rect x="0" y="0" width="176" height="54" rx="4"/></g><text x="88" y="31.5" text-anchor="middle" font-size="12" font-weight="600" fill="#0a3069">收货并验收</text></g><g transform="translate(92,501)" data-id="N12"><g fill="#ddf4ff" stroke="#0969da" stroke-width="1.5"><rect x="0" y="0" width="176" height="54" rx="4"/></g><text x="88" y="31.5" text-anchor="middle" font-size="12" font-weight="600" fill="#0a3069">支付货款</text></g><g transform="translate(436,129)" data-id="N2"><g fill="#fff1e5" stroke="#bc4c00" stroke-width="1.5"><rect x="0" y="0" width="176" height="54" rx="4"/></g><text x="88" y="31.5" text-anchor="middle" font-size="12" font-weight="600" fill="#571f00">销售员：创建销售订单 SO</text></g><g transform="translate(426,235)" data-id="N3"><g fill="#fff8c5" stroke="#9a6700" stroke-width="1.5"><polygon points="98,0 196,45 98,90 0,45"/></g><text x="98" y="49.5" text-anchor="middle" font-size="11.5" font-weight="600" fill="#633c01">销售经理：金额超限?</text></g><g transform="translate(436,377)" data-id="N5"><g fill="#fff1e5" stroke="#bc4c00" stroke-width="1.5"><rect x="0" y="0" width="176" height="54" rx="4"/></g><text x="88" y="31.5" text-anchor="middle" font-size="12" font-weight="600" fill="#571f00">销售员：确认订单并发送</text></g><g transform="translate(780,129)" data-id="N4"><g fill="#dafbe1" stroke="#1a7f37" stroke-width="1.5"><rect x="0" y="0" width="176" height="54" rx="4"/></g><text x="88" y="31.5" text-anchor="middle" font-size="12" font-weight="600" fill="#0a3d1e">信用专员：信用审核</text></g><g transform="translate(1124,129)" data-id="N7"><g fill="#fbefff" stroke="#8250df" stroke-width="1.5"><rect x="0" y="0" width="176" height="54" rx="4"/></g><text x="88" y="31.5" text-anchor="middle" font-size="12" font-weight="600" fill="#3e1f6f">仓管员：拣货出库</text></g><g transform="translate(1124,253)" data-id="N8"><g fill="#fbefff" stroke="#8250df" stroke-width="1.5"><rect x="0" y="0" width="176" height="54" rx="4"/></g><text x="88" y="31.5" text-anchor="middle" font-size="12" font-weight="600" fill="#3e1f6f">仓管员：物流发货</text></g><g transform="translate(1468,129)" data-id="N10"><g fill="#e6f6f6" stroke="#0e7490" stroke-width="1.5"><rect x="0" y="0" width="176" height="54" rx="4"/></g><text x="88" y="31.5" text-anchor="middle" font-size="12" font-weight="600" fill="#155e75">应收会计：开具发票</text></g><g transform="translate(1468,253)" data-id="N11"><g fill="#e6f6f6" stroke="#0e7490" stroke-width="1.5"><rect x="0" y="0" width="176" height="54" rx="4"/></g><text x="88" y="31.5" text-anchor="middle" font-size="12" font-weight="600" fill="#155e75">应收会计：应收对账</text></g><g transform="translate(1468,377)" data-id="N13"><g fill="#e6f6f6" stroke="#0e7490" stroke-width="1.5"><rect x="0" y="0" width="176" height="54" rx="4"/></g><text x="88" y="31.5" text-anchor="middle" font-size="12" font-weight="600" fill="#155e75">出纳：收款并核销</text></g><g transform="translate(1461,503)" data-id="N14"><g fill="#1f883d" stroke="#1a7f37" stroke-width="2"><rect x="0" y="0" width="190" height="50" rx="25" ry="25"/></g><text x="95" y="29.5" text-anchor="middle" font-size="12" font-weight="600" fill="#ffffff">出纳：结束：订单完成</text></g><text x="50" y="24" font-size="15" font-weight="700" fill="#1f2328">销售订单 Order-to-Cash</text><text x="370" y="24" font-size="10.5" fill="#59636e">模式=swimlane</text></svg>