<svg xmlns="http://www.w3.org/2000/svg" viewBox="0 0 1736 412" width="1736" height="412" style="background:#ffffff;font-family:'Microsoft YaHei',system-ui,sans-serif"><defs><marker id="arr" viewBox="0 0 10 10" refX="9" refY="5" markerWidth="7" markerHeight="7" orient="auto-start-reverse"><path d="M0,0 L10,5 L0,10 z" fill="#59636e"/></marker></defs><rect x="50" y="50" width="260" height="312" fill="#ffffff" stroke="#59636e" stroke-width="1" opacity="0.55"/><rect x="50" y="50" width="260" height="44" fill="#0969da"/><text x="180" y="78" text-anchor="middle" font-size="13.5" font-weight="700" fill="#ffffff">销售部</text><rect x="394" y="50" width="260" height="312" fill="#ffffff" stroke="#59636e" stroke-width="1" opacity="0.55"/><rect x="394" y="50" width="260" height="44" fill="#bc4c00"/><text x="524" y="78" text-anchor="middle" font-size="13.5" font-weight="700" fill="#ffffff">财务部</text><rect x="738" y="50" width="260" height="312" fill="#ffffff" stroke="#59636e" stroke-width="1" opacity="0.55"/><rect x="738" y="50" width="260" height="44" fill="#1a7f37"/><text x="868" y="78" text-anchor="middle" font-size="13.5" font-weight="700" fill="#ffffff">仓储部</text><rect x="1082" y="50" width="260" height="312" fill="#ffffff" stroke="#59636e" stroke-width="1" opacity="0.55"/><rect x="1082" y="50" width="260" height="44" fill="#8250df"/><text x="1212" y="78" text-anchor="middle" font-size="13.5" font-weight="700" fill="#ffffff">物流</text><rect x="1426" y="50" width="260" height="312" fill="#ffffff" stroke="#59636e" stroke-width="1" opacity="0.55"/><rect x="1426" y="50" width="260" height="44" fill="#0e7490"/><text x="1556" y="78" text-anchor="middle" font-size="13.5" font-weight="700" fill="#ffffff">客户</text><path d="M 275 156 L 352 156 L 352 156 L 426 156" fill="none" stroke="#59636e" stroke-width="1.4" marker-end="url(#arr)" data-edge="1" data-eidx="0"/><path d="M 622 156 L 696 156 L 696 156 L 780 156" fill="none" stroke="#59636e" stroke-width="1.4" marker-end="url(#arr)" data-edge="1" data-eidx="1"/><text x="696" y="149" text-anchor="middle" font-size="10.5" fill="#59636e" paint-order="stroke" stroke="#ffffff" stroke-width="3">通过</text><path d="M 426 156 L 352 156 L 352 156 L 275 156" fill="none" stroke="#59636e" stroke-width="1.4" stroke-dasharray="6 4" marker-end="url(#arr)" data-edge="1" data-eidx="2"/><text x="352" y="149" text-anchor="middle" font-size="10.5" fill="#59636e" paint-order="stroke" stroke="#ffffff" stroke-width="3">未回款</text><path d="M 868 183 L 868 253" fill="none" stroke="#59636e" stroke-width="1.4" marker-end="url(#arr)" data-edge="1" data-eidx="3"/><path d="M 956 280 L 1040 280 L 1040 156 L 1124 156" fill="none" stroke="#59636e" stroke-width="1.4" marker-end="url(#arr)" data-edge="1" data-eidx="4"/><path d="M 1300 156 L 1384 156 L 1384 156 L 1468 156" fill="none" stroke="#59636e" stroke-width="1.4" marker-end="url(#arr)" data-edge="1" data-eidx="5"/><path d="M 1468 156 L 1384 156 L 1384 280 L 275 280" fill="none" stroke="#59636e" stroke-width="1.4" stroke-dasharray="6 4" marker-end="url(#arr)" data-edge="1" data-eidx="6"/><g transform="translate(0,0)" data-id="N1"><g fill="#1f883d" stroke="#1a7f37" stroke-width="2"><rect x="85" y="131" width="190" height="50" rx="25" ry="25"/></g><text x="180" y="160.5" text-anchor="middle" font-size="12" font-weight="600" fill="#ffffff">销售员：提交出库发货申请</text></g><g transform="translate(0,0)" data-id="N7"><g fill="#1f883d" stroke="#1a7f37" stroke-width="2"><rect x="85" y="255" width="190" height="50" rx="25" ry="25"/></g><text x="180" y="284.5" text-anchor="middle" font-size="12" font-weight="600" fill="#ffffff">销售员：发货完成归档</text></g><g transform="translate(0,0)" data-id="N2"><g fill="#fff8c5" stroke="#9a6700" stroke-width="1.5"><polygon points="524,111 622,156 524,201 426,156"/></g><text x="524" y="160.5" text-anchor="middle" font-size="11.5" font-weight="600" fill="#633c01">应收会计：货款或信用确认通过?</text></g><g transform="translate(0,0)" data-id="N3"><g fill="#dafbe1" stroke="#1a7f37" stroke-width="1.5"><rect x="780" y="129" width="176" height="54" rx="4"/></g><text x="868" y="160.5" text-anchor="middle" font-size="12" font-weight="600" fill="#0a3d1e">仓管员：拣货与复核</text></g><g transform="translate(0,0)" data-id="N4"><g fill="#dafbe1" stroke="#1a7f37" stroke-width="1.5"><rect x="780" y="253" width="176" height="54" rx="4"/></g><text x="868" y="284.5" text-anchor="middle" font-size="12" font-weight="600" fill="#0a3d1e">仓管员：出库过账</text></g><g transform="translate(0,0)" data-id="N5"><g fill="#fbefff" stroke="#8250df" stroke-width="1.5"><rect x="1124" y="129" width="176" height="54" rx="4"/></g><text x="1212" y="160.5" text-anchor="middle" font-size="12" font-weight="600" fill="#3e1f6f">物流员：安排物流发货</text></g><g transform="translate(0,0)" data-id="N6"><g fill="#e6f6f6" stroke="#0e7490" stroke-width="1.5"><rect x="1468" y="129" width="176" height="54" rx="4"/></g><text x="1556" y="160.5" text-anchor="middle" font-size="12" font-weight="600" fill="#155e75">签收确认</text></g><text x="50" y="24" font-size="15" font-weight="700" fill="#1f2328">销售出库发货流程</text><text x="370" y="24" font-size="10.5" fill="#59636e">模式=swimlane</text></svg>