<svg xmlns="http://www.w3.org/2000/svg" viewBox="0 0 704 784" width="704" height="784" style="background:#ffffff;font-family:'Microsoft YaHei',system-ui,sans-serif"><defs><marker id="arr" viewBox="0 0 10 10" refX="9" refY="5" markerWidth="7" markerHeight="7" orient="auto-start-reverse"><path d="M0,0 L10,5 L0,10 z" fill="#59636e"/></marker></defs><g data-lane="业务部门" data-lane-depth="0"><rect x="50" y="50" width="260" height="288" fill="#ffffff" stroke="#59636e" stroke-width="1" opacity="0.55"/><rect x="50" y="50" width="260" height="44" fill="#0969da"/><text x="180" y="76" text-anchor="middle" font-size="13.5" font-weight="700" fill="#ffffff">业务部门</text><rect x="50" y="94" width="260" height="244" fill="transparent" stroke="#59636e" stroke-width="0.8" stroke-dasharray="4 3" opacity="0.45" data-lane-role="业务部门"/><text x="180" y="109" text-anchor="middle" font-size="10.5" font-weight="600" fill="undefined">业务部门</text></g><g data-lane="财务部" data-lane-depth="0"><rect x="394" y="50" width="260" height="784" fill="#ffffff" stroke="#59636e" stroke-width="1" opacity="0.55"/><rect x="394" y="50" width="260" height="44" fill="#bc4c00"/><text x="524" y="76" text-anchor="middle" font-size="13.5" font-weight="700" fill="#ffffff">财务部</text><rect x="394" y="94" width="260" height="740" fill="transparent" stroke="#59636e" stroke-width="0.8" stroke-dasharray="4 3" opacity="0.45" data-lane-role="财务部"/><text x="524" y="109" text-anchor="middle" font-size="10.5" font-weight="600" fill="undefined">财务部</text></g><path d="M 275 156 L 352 156 L 352 156 L 426 156" fill="none" stroke="#59636e" stroke-width="1.4" marker-end="url(#arr)" data-edge="1" data-eidx="0"/><path d="M 524 201 L 524 235" fill="none" stroke="#59636e" stroke-width="1.4" marker-end="url(#arr)" data-edge="1" data-eidx="1"/><text x="524" y="228" text-anchor="middle" font-size="10.5" fill="#59636e" paint-order="stroke" stroke="#ffffff" stroke-width="3">通过</text><path d="M 426 156 L 352 156 L 352 156 L 275 156" fill="none" stroke="#59636e" stroke-width="1.4" stroke-dasharray="6 4" marker-end="url(#arr)" data-edge="1" data-eidx="2"/><text x="352" y="149" text-anchor="middle" font-size="10.5" fill="#59636e" paint-order="stroke" stroke="#ffffff" stroke-width="3">退回</text><path d="M 524 325 L 524 377" fill="none" stroke="#59636e" stroke-width="1.4" marker-end="url(#arr)" data-edge="1" data-eidx="3"/><text x="524" y="370" text-anchor="middle" font-size="10.5" fill="#59636e" paint-order="stroke" stroke="#ffffff" stroke-width="3">通过</text><path d="M 426 280 L 352 280 L 352 156 L 275 156" fill="none" stroke="#59636e" stroke-width="1.4" stroke-dasharray="6 4" marker-end="url(#arr)" data-edge="1" data-eidx="4"/><text x="352" y="149" text-anchor="middle" font-size="10.5" fill="#59636e" paint-order="stroke" stroke="#ffffff" stroke-width="3">不通过</text><path d="M 524 431 L 524 501" fill="none" stroke="#59636e" stroke-width="1.4" marker-end="url(#arr)" data-edge="1" data-eidx="5"/><path d="M 524 555 L 524 627" fill="none" stroke="#59636e" stroke-width="1.4" marker-end="url(#arr)" data-edge="1" data-eidx="6"/><g transform="translate(85,131)" data-id="N1"><g fill="#1f883d" stroke="#1a7f37" stroke-width="2"><rect x="0" y="0" width="190" height="50" rx="25" ry="25"/></g><text x="95" y="29.5" text-anchor="middle" font-size="12" font-weight="600" fill="#ffffff">经办人：提交付款申请</text></g><g transform="translate(426,111)" data-id="N2"><g fill="#fff8c5" stroke="#9a6700" stroke-width="1.5"><polygon points="98,0 196,45 98,90 0,45"/></g><text x="98" y="49.5" text-anchor="middle" font-size="11.5" font-weight="600" fill="#633c01">应付会计：付款审核通过?</text></g><g transform="translate(426,235)" data-id="N3"><g fill="#fff8c5" stroke="#9a6700" stroke-width="1.5"><polygon points="98,0 196,45 98,90 0,45"/></g><text x="98" y="49.5" text-anchor="middle" font-size="11.5" font-weight="600" fill="#633c01">财务经理：大额付款审批通过?</text></g><g transform="translate(436,377)" data-id="N4"><g fill="#fff1e5" stroke="#bc4c00" stroke-width="1.5"><rect x="0" y="0" width="176" height="54" rx="4"/></g><text x="88" y="31.5" text-anchor="middle" font-size="12" font-weight="600" fill="#571f00">出纳：付款执行</text></g><g transform="translate(436,501)" data-id="N5"><g fill="#fff1e5" stroke="#bc4c00" stroke-width="1.5"><rect x="0" y="0" width="176" height="54" rx="4"/></g><text x="88" y="31.5" text-anchor="middle" font-size="12" font-weight="600" fill="#571f00">应付会计：账务核销</text></g><g transform="translate(429,627)" data-id="N6"><g fill="#1f883d" stroke="#1a7f37" stroke-width="2"><rect x="0" y="0" width="190" height="50" rx="25" ry="25"/></g><text x="95" y="29.5" text-anchor="middle" font-size="12" font-weight="600" fill="#ffffff">应付会计：付款完成</text></g><text x="50" y="24" font-size="15" font-weight="700" fill="#1f2328">付款申请流程（应付）</text><text x="370" y="24" font-size="10.5" fill="#59636e">模式=swimlane</text></svg>