<svg xmlns="http://www.w3.org/2000/svg" viewBox="0 0 1048 1032" width="1048" height="1032" style="background:#ffffff;font-family:'Microsoft YaHei',system-ui,sans-serif"><defs><marker id="arr" viewBox="0 0 10 10" refX="9" refY="5" markerWidth="7" markerHeight="7" orient="auto-start-reverse"><path d="M0,0 L10,5 L0,10 z" fill="#59636e"/></marker></defs><rect x="50" y="50" width="260" height="932" fill="#ffffff" stroke="#59636e" stroke-width="1" opacity="0.55"/><rect x="50" y="50" width="260" height="44" fill="#0969da"/><text x="180" y="78" text-anchor="middle" font-size="13.5" font-weight="700" fill="#ffffff">销售部</text><rect x="394" y="50" width="260" height="932" fill="#ffffff" stroke="#59636e" stroke-width="1" opacity="0.55"/><rect x="394" y="50" width="260" height="44" fill="#bc4c00"/><text x="524" y="78" text-anchor="middle" font-size="13.5" font-weight="700" fill="#ffffff">生产计划</text><rect x="738" y="50" width="260" height="932" fill="#ffffff" stroke="#59636e" stroke-width="1" opacity="0.55"/><rect x="738" y="50" width="260" height="44" fill="#1a7f37"/><text x="868" y="78" text-anchor="middle" font-size="13.5" font-weight="700" fill="#ffffff">仓储部</text><path d="M 275 156 L 352 156 L 352 156 L 436 156" fill="none" stroke="#59636e" stroke-width="1.4" marker-end="url(#arr)" data-edge="1" data-eidx="0"/><path d="M 524 183 L 524 253" fill="none" stroke="#59636e" stroke-width="1.4" marker-end="url(#arr)" data-edge="1" data-eidx="1"/><path d="M 524 307 L 524 359" fill="none" stroke="#59636e" stroke-width="1.4" marker-end="url(#arr)" data-edge="1" data-eidx="2"/><path d="M 524 449 L 524 501" fill="none" stroke="#59636e" stroke-width="1.4" marker-end="url(#arr)" data-edge="1" data-eidx="3"/><text x="524" y="494" text-anchor="middle" font-size="10.5" fill="#59636e" paint-order="stroke" stroke="#ffffff" stroke-width="3">平衡</text><path d="M 524 359 L 524 307" fill="none" stroke="#59636e" stroke-width="1.4" stroke-dasharray="6 4" marker-end="url(#arr)" data-edge="1" data-eidx="4"/><text x="524" y="300" text-anchor="middle" font-size="10.5" fill="#59636e" paint-order="stroke" stroke="#ffffff" stroke-width="3">不平衡</text><path d="M 612 528 L 696 528 L 696 156 L 780 156" fill="none" stroke="#59636e" stroke-width="1.4" marker-end="url(#arr)" data-edge="1" data-eidx="5"/><path d="M 780 156 L 696 156 L 696 652 L 622 652" fill="none" stroke="#59636e" stroke-width="1.4" stroke-dasharray="6 4" marker-end="url(#arr)" data-edge="1" data-eidx="6"/><path d="M 524 697 L 524 749" fill="none" stroke="#59636e" stroke-width="1.4" marker-end="url(#arr)" data-edge="1" data-eidx="7"/><text x="524" y="742" text-anchor="middle" font-size="10.5" fill="#59636e" paint-order="stroke" stroke="#ffffff" stroke-width="3">通过</text><path d="M 524 607 L 524 307" fill="none" stroke="#59636e" stroke-width="1.4" stroke-dasharray="6 4" marker-end="url(#arr)" data-edge="1" data-eidx="8"/><text x="524" y="300" text-anchor="middle" font-size="10.5" fill="#59636e" paint-order="stroke" stroke="#ffffff" stroke-width="3">驳回</text><path d="M 524 803 L 524 875" fill="none" stroke="#59636e" stroke-width="1.4" marker-end="url(#arr)" data-edge="1" data-eidx="9"/><g transform="translate(0,0)" data-id="N1"><g fill="#1f883d" stroke="#1a7f37" stroke-width="2"><rect x="85" y="131" width="190" height="50" rx="25" ry="25"/></g><text x="180" y="160.5" text-anchor="middle" font-size="12" font-weight="600" fill="#ffffff">销售员：提交销售预测与订单</text></g><g transform="translate(0,0)" data-id="N2"><g fill="#fff1e5" stroke="#bc4c00" stroke-width="1.5"><rect x="436" y="129" width="176" height="54" rx="4"/></g><text x="524" y="160.5" text-anchor="middle" font-size="12" font-weight="600" fill="#571f00">计划员：需求汇总</text></g><g transform="translate(0,0)" data-id="N3"><g fill="#fff1e5" stroke="#bc4c00" stroke-width="1.5"><rect x="436" y="253" width="176" height="54" rx="4"/></g><text x="524" y="284.5" text-anchor="middle" font-size="12" font-weight="600" fill="#571f00">计划员：MPS 主生产计划编制</text></g><g transform="translate(0,0)" data-id="N4"><g fill="#fff8c5" stroke="#9a6700" stroke-width="1.5"><polygon points="524,359 622,404 524,449 426,404"/></g><text x="524" y="408.5" text-anchor="middle" font-size="11.5" font-weight="600" fill="#633c01">计划员：产能与物料平衡?</text></g><g transform="translate(0,0)" data-id="N5"><g fill="#fff1e5" stroke="#bc4c00" stroke-width="1.5"><rect x="436" y="501" width="176" height="54" rx="4"/></g><text x="524" y="532.5" text-anchor="middle" font-size="12" font-weight="600" fill="#571f00">计划员：MRP 物料需求计划</text></g><g transform="translate(0,0)" data-id="N7"><g fill="#fff8c5" stroke="#9a6700" stroke-width="1.5"><polygon points="524,607 622,652 524,697 426,652"/></g><text x="524" y="656.5" text-anchor="middle" font-size="11.5" font-weight="600" fill="#633c01">计划经理：计划审批通过?</text></g><g transform="translate(0,0)" data-id="N8"><g fill="#fff1e5" stroke="#bc4c00" stroke-width="1.5"><rect x="436" y="749" width="176" height="54" rx="4"/></g><text x="524" y="780.5" text-anchor="middle" font-size="12" font-weight="600" fill="#571f00">计划员：计划下达</text></g><g transform="translate(0,0)" data-id="N9"><g fill="#1f883d" stroke="#1a7f37" stroke-width="2"><rect x="429" y="875" width="190" height="50" rx="25" ry="25"/></g><text x="524" y="904.5" text-anchor="middle" font-size="12" font-weight="600" fill="#ffffff">计划员：计划发布</text></g><g transform="translate(0,0)" data-id="N6"><g fill="#dafbe1" stroke="#1a7f37" stroke-width="1.5"><rect x="780" y="129" width="176" height="54" rx="4"/></g><text x="868" y="160.5" text-anchor="middle" font-size="12" font-weight="600" fill="#0a3d1e">仓管员：库存核减</text></g><text x="50" y="24" font-size="15" font-weight="700" fill="#1f2328">生产计划编制流程</text><text x="370" y="24" font-size="10.5" fill="#59636e">模式=swimlane</text></svg>