<svg xmlns="http://www.w3.org/2000/svg" viewBox="0 0 1392 536" width="1392" height="536" style="background:#ffffff;font-family:'Microsoft YaHei',system-ui,sans-serif"><defs><marker id="arr" viewBox="0 0 10 10" refX="9" refY="5" markerWidth="7" markerHeight="7" orient="auto-start-reverse"><path d="M0,0 L10,5 L0,10 z" fill="#59636e"/></marker></defs><rect x="50" y="50" width="260" height="436" fill="#ffffff" stroke="#59636e" stroke-width="1" opacity="0.55"/><rect x="50" y="50" width="260" height="44" fill="#0969da"/><text x="180" y="78" text-anchor="middle" font-size="13.5" font-weight="700" fill="#ffffff">研发部</text><rect x="394" y="50" width="260" height="436" fill="#ffffff" stroke="#59636e" stroke-width="1" opacity="0.55"/><rect x="394" y="50" width="260" height="44" fill="#bc4c00"/><text x="524" y="78" text-anchor="middle" font-size="13.5" font-weight="700" fill="#ffffff">测试部</text><rect x="738" y="50" width="260" height="436" fill="#ffffff" stroke="#59636e" stroke-width="1" opacity="0.55"/><rect x="738" y="50" width="260" height="44" fill="#1a7f37"/><text x="868" y="78" text-anchor="middle" font-size="13.5" font-weight="700" fill="#ffffff">运维部</text><rect x="1082" y="50" width="260" height="436" fill="#ffffff" stroke="#59636e" stroke-width="1" opacity="0.55"/><rect x="1082" y="50" width="260" height="44" fill="#8250df"/><text x="1212" y="78" text-anchor="middle" font-size="13.5" font-weight="700" fill="#ffffff">产品部</text><path d="M 275 156 L 352 156 L 352 156 L 426 156" fill="none" stroke="#59636e" stroke-width="1.4" marker-end="url(#arr)" data-edge="1" data-eidx="0"/><path d="M 524 201 L 524 253" fill="none" stroke="#59636e" stroke-width="1.4" marker-end="url(#arr)" data-edge="1" data-eidx="1"/><text x="524" y="246" text-anchor="middle" font-size="10.5" fill="#59636e" paint-order="stroke" stroke="#ffffff" stroke-width="3">通过</text><path d="M 426 156 L 352 156 L 352 156 L 275 156" fill="none" stroke="#59636e" stroke-width="1.4" stroke-dasharray="6 4" marker-end="url(#arr)" data-edge="1" data-eidx="2"/><text x="352" y="149" text-anchor="middle" font-size="10.5" fill="#59636e" paint-order="stroke" stroke="#ffffff" stroke-width="3">不通过</text><path d="M 524 307 L 524 359" fill="none" stroke="#59636e" stroke-width="1.4" marker-end="url(#arr)" data-edge="1" data-eidx="3"/><path d="M 622 404 L 696 404 L 696 156 L 780 156" fill="none" stroke="#59636e" stroke-width="1.4" marker-end="url(#arr)" data-edge="1" data-eidx="4"/><text x="696" y="149" text-anchor="middle" font-size="10.5" fill="#59636e" paint-order="stroke" stroke="#ffffff" stroke-width="3">通过</text><path d="M 426 404 L 352 404 L 352 156 L 275 156" fill="none" stroke="#59636e" stroke-width="1.4" stroke-dasharray="6 4" marker-end="url(#arr)" data-edge="1" data-eidx="5"/><text x="352" y="149" text-anchor="middle" font-size="10.5" fill="#59636e" paint-order="stroke" stroke="#ffffff" stroke-width="3">不通过</text><path d="M 868 183 L 868 253" fill="none" stroke="#59636e" stroke-width="1.4" marker-end="url(#arr)" data-edge="1" data-eidx="6"/><path d="M 956 280 L 1040 280 L 1040 156 L 1114 156" fill="none" stroke="#59636e" stroke-width="1.4" marker-end="url(#arr)" data-edge="1" data-eidx="7"/><path d="M 1114 156 L 1040 156 L 1040 404 L 956 404" fill="none" stroke="#59636e" stroke-width="1.4" stroke-dasharray="6 4" marker-end="url(#arr)" data-edge="1" data-eidx="8"/><text x="1040" y="397" text-anchor="middle" font-size="10.5" fill="#59636e" paint-order="stroke" stroke="#ffffff" stroke-width="3">通过</text><path d="M 1114 156 L 1040 156 L 1040 156 L 956 156" fill="none" stroke="#59636e" stroke-width="1.4" stroke-dasharray="6 4" marker-end="url(#arr)" data-edge="1" data-eidx="9"/><text x="1040" y="149" text-anchor="middle" font-size="10.5" fill="#59636e" paint-order="stroke" stroke="#ffffff" stroke-width="3">不通过·回滚</text><path d="M 956 404 L 1040 404 L 1040 280 L 1117 280" fill="none" stroke="#59636e" stroke-width="1.4" marker-end="url(#arr)" data-edge="1" data-eidx="10"/><g transform="translate(0,0)" data-id="N1"><g fill="#1f883d" stroke="#1a7f37" stroke-width="2"><rect x="85" y="131" width="190" height="50" rx="25" ry="25"/></g><text x="180" y="160.5" text-anchor="middle" font-size="12" font-weight="600" fill="#ffffff">开发工程师：提交版本发布申请</text></g><g transform="translate(0,0)" data-id="N2"><g fill="#fff8c5" stroke="#9a6700" stroke-width="1.5"><polygon points="524,111 622,156 524,201 426,156"/></g><text x="524" y="160.5" text-anchor="middle" font-size="11.5" font-weight="600" fill="#633c01">测试经理：测试准入通过?</text></g><g transform="translate(0,0)" data-id="N3"><g fill="#fff1e5" stroke="#bc4c00" stroke-width="1.5"><rect x="436" y="253" width="176" height="54" rx="4"/></g><text x="524" y="284.5" text-anchor="middle" font-size="12" font-weight="600" fill="#571f00">测试经理：测试验证</text></g><g transform="translate(0,0)" data-id="N4"><g fill="#fff8c5" stroke="#9a6700" stroke-width="1.5"><polygon points="524,359 622,404 524,449 426,404"/></g><text x="524" y="408.5" text-anchor="middle" font-size="11.5" font-weight="600" fill="#633c01">测试经理：测试通过?</text></g><g transform="translate(0,0)" data-id="N5"><g fill="#dafbe1" stroke="#1a7f37" stroke-width="1.5"><rect x="780" y="129" width="176" height="54" rx="4"/></g><text x="868" y="160.5" text-anchor="middle" font-size="12" font-weight="600" fill="#0a3d1e">运维工程师：灰度发布</text></g><g transform="translate(0,0)" data-id="N6"><g fill="#dafbe1" stroke="#1a7f37" stroke-width="1.5"><rect x="780" y="253" width="176" height="54" rx="4"/></g><text x="868" y="284.5" text-anchor="middle" font-size="12" font-weight="600" fill="#0a3d1e">运维工程师：全量发布</text></g><g transform="translate(0,0)" data-id="N8"><g fill="#dafbe1" stroke="#1a7f37" stroke-width="1.5"><rect x="780" y="377" width="176" height="54" rx="4"/></g><text x="868" y="408.5" text-anchor="middle" font-size="12" font-weight="600" fill="#0a3d1e">运维工程师：发布后监控</text></g><g transform="translate(0,0)" data-id="N7"><g fill="#fff8c5" stroke="#9a6700" stroke-width="1.5"><polygon points="1212,111 1310,156 1212,201 1114,156"/></g><text x="1212" y="160.5" text-anchor="middle" font-size="11.5" font-weight="600" fill="#633c01">产品经理：发布验收通过?</text></g><g transform="translate(0,0)" data-id="N9"><g fill="#1f883d" stroke="#1a7f37" stroke-width="2"><rect x="1117" y="255" width="190" height="50" rx="25" ry="25"/></g><text x="1212" y="284.5" text-anchor="middle" font-size="12" font-weight="600" fill="#ffffff">产品经理：版本上线完成</text></g><text x="50" y="24" font-size="15" font-weight="700" fill="#1f2328">版本发布上线流程</text><text x="370" y="24" font-size="10.5" fill="#59636e">模式=swimlane</text></svg>