<svg xmlns="http://www.w3.org/2000/svg" viewBox="0 0 704 784" width="704" height="784" style="background:#ffffff;font-family:'Microsoft YaHei',system-ui,sans-serif"><defs><marker id="arr" viewBox="0 0 10 10" refX="9" refY="5" markerWidth="7" markerHeight="7" orient="auto-start-reverse"><path d="M0,0 L10,5 L0,10 z" fill="#59636e"/></marker></defs><g data-lane="采购部" data-lane-depth="0"><rect x="50" y="50" width="260" height="784" fill="#ffffff" stroke="#59636e" stroke-width="1" opacity="0.55"/><rect x="50" y="50" width="260" height="44" fill="#0969da"/><text x="180" y="76" text-anchor="middle" font-size="13.5" font-weight="700" fill="#ffffff">采购部</text><rect x="50" y="94" width="260" height="740" fill="transparent" stroke="#59636e" stroke-width="0.8" stroke-dasharray="4 3" opacity="0.45" data-lane-role="采购部"/><text x="180" y="109" text-anchor="middle" font-size="10.5" font-weight="600" fill="undefined">采购部</text></g><g data-lane="供应商" data-lane-depth="0"><rect x="394" y="50" width="260" height="288" fill="#ffffff" stroke="#59636e" stroke-width="1" opacity="0.55"/><rect x="394" y="50" width="260" height="44" fill="#bc4c00"/><text x="524" y="76" text-anchor="middle" font-size="13.5" font-weight="700" fill="#ffffff">供应商</text><rect x="394" y="94" width="260" height="244" fill="transparent" stroke="#59636e" stroke-width="0.8" stroke-dasharray="4 3" opacity="0.45" data-lane-role="供应商"/><text x="524" y="109" text-anchor="middle" font-size="10.5" font-weight="600" fill="undefined">供应商</text></g><path d="M 275 156 L 352 156 L 352 156 L 436 156" fill="none" stroke="#59636e" stroke-width="1.4" marker-end="url(#arr)" data-edge="1" data-eidx="0"/><path d="M 436 156 L 352 156 L 352 280 L 268 280" fill="none" stroke="#59636e" stroke-width="1.4" stroke-dasharray="6 4" marker-end="url(#arr)" data-edge="1" data-eidx="1"/><path d="M 180 307 L 180 359" fill="none" stroke="#59636e" stroke-width="1.4" marker-end="url(#arr)" data-edge="1" data-eidx="2"/><path d="M 180 449 L 180 501" fill="none" stroke="#59636e" stroke-width="1.4" marker-end="url(#arr)" data-edge="1" data-eidx="3"/><text x="180" y="494" text-anchor="middle" font-size="10.5" fill="#59636e" paint-order="stroke" stroke="#ffffff" stroke-width="3">通过</text><path d="M 180 359 L 180 307" fill="none" stroke="#59636e" stroke-width="1.4" stroke-dasharray="6 4" marker-end="url(#arr)" data-edge="1" data-eidx="4"/><text x="180" y="300" text-anchor="middle" font-size="10.5" fill="#59636e" paint-order="stroke" stroke="#ffffff" stroke-width="3">不通过</text><path d="M 180 555 L 180 627" fill="none" stroke="#59636e" stroke-width="1.4" marker-end="url(#arr)" data-edge="1" data-eidx="5"/><g transform="translate(85,131)" data-id="N1"><g fill="#1f883d" stroke="#1a7f37" stroke-width="2"><rect x="0" y="0" width="190" height="50" rx="25" ry="25"/></g><text x="95" y="29.5" text-anchor="middle" font-size="12" font-weight="600" fill="#ffffff">采购员：发起询价比价</text></g><g transform="translate(92,253)" data-id="N3"><g fill="#ddf4ff" stroke="#0969da" stroke-width="1.5"><rect x="0" y="0" width="176" height="54" rx="4"/></g><text x="88" y="31.5" text-anchor="middle" font-size="12" font-weight="600" fill="#0a3069">采购员：比价与议价</text></g><g transform="translate(82,359)" data-id="N4"><g fill="#fff8c5" stroke="#9a6700" stroke-width="1.5"><polygon points="98,0 196,45 98,90 0,45"/></g><text x="98" y="49.5" text-anchor="middle" font-size="11.5" font-weight="600" fill="#633c01">采购经理：供应商选定审批通过?</text></g><g transform="translate(92,501)" data-id="N5"><g fill="#ddf4ff" stroke="#0969da" stroke-width="1.5"><rect x="0" y="0" width="176" height="54" rx="4"/></g><text x="88" y="31.5" text-anchor="middle" font-size="12" font-weight="600" fill="#0a3069">采购员：生成比价记录</text></g><g transform="translate(85,627)" data-id="N6"><g fill="#1f883d" stroke="#1a7f37" stroke-width="2"><rect x="0" y="0" width="190" height="50" rx="25" ry="25"/></g><text x="95" y="29.5" text-anchor="middle" font-size="12" font-weight="600" fill="#ffffff">采购员：供应商定案</text></g><g transform="translate(436,129)" data-id="N2"><g fill="#fff1e5" stroke="#bc4c00" stroke-width="1.5"><rect x="0" y="0" width="176" height="54" rx="4"/></g><text x="88" y="31.5" text-anchor="middle" font-size="12" font-weight="600" fill="#571f00">提交报价</text></g><text x="50" y="24" font-size="15" font-weight="700" fill="#1f2328">供应商询价比价流程</text><text x="370" y="24" font-size="10.5" fill="#59636e">模式=swimlane</text></svg>