<svg xmlns="http://www.w3.org/2000/svg" viewBox="0 0 1392 536" width="1392" height="536" style="background:#ffffff;font-family:'Microsoft YaHei',system-ui,sans-serif"><defs><marker id="arr" viewBox="0 0 10 10" refX="9" refY="5" markerWidth="7" markerHeight="7" orient="auto-start-reverse"><path d="M0,0 L10,5 L0,10 z" fill="#59636e"/></marker></defs><rect x="50" y="50" width="260" height="436" fill="#ffffff" stroke="#59636e" stroke-width="1" opacity="0.55"/><rect x="50" y="50" width="260" height="44" fill="#0969da"/><text x="180" y="78" text-anchor="middle" font-size="13.5" font-weight="700" fill="#ffffff">员工</text><rect x="394" y="50" width="260" height="436" fill="#ffffff" stroke="#59636e" stroke-width="1" opacity="0.55"/><rect x="394" y="50" width="260" height="44" fill="#bc4c00"/><text x="524" y="78" text-anchor="middle" font-size="13.5" font-weight="700" fill="#ffffff">HR</text><rect x="738" y="50" width="260" height="436" fill="#ffffff" stroke="#59636e" stroke-width="1" opacity="0.55"/><rect x="738" y="50" width="260" height="44" fill="#1a7f37"/><text x="868" y="78" text-anchor="middle" font-size="13.5" font-weight="700" fill="#ffffff">财务部</text><rect x="1082" y="50" width="260" height="436" fill="#ffffff" stroke="#59636e" stroke-width="1" opacity="0.55"/><rect x="1082" y="50" width="260" height="44" fill="#8250df"/><text x="1212" y="78" text-anchor="middle" font-size="13.5" font-weight="700" fill="#ffffff">社保局/公积金中心</text><path d="M 275 156 L 352 156 L 352 156 L 426 156" fill="none" stroke="#59636e" stroke-width="1.4" marker-end="url(#arr)" data-edge="1" data-eidx="0"/><path d="M 524 201 L 524 253" fill="none" stroke="#59636e" stroke-width="1.4" marker-end="url(#arr)" data-edge="1" data-eidx="1"/><text x="524" y="246" text-anchor="middle" font-size="10.5" fill="#59636e" paint-order="stroke" stroke="#ffffff" stroke-width="3">齐全</text><path d="M 426 156 L 352 156 L 352 156 L 275 156" fill="none" stroke="#59636e" stroke-width="1.4" stroke-dasharray="6 4" marker-end="url(#arr)" data-edge="1" data-eidx="2"/><text x="352" y="149" text-anchor="middle" font-size="10.5" fill="#59636e" paint-order="stroke" stroke="#ffffff" stroke-width="3">补资料</text><path d="M 612 280 L 696 280 L 696 156 L 780 156" fill="none" stroke="#59636e" stroke-width="1.4" marker-end="url(#arr)" data-edge="1" data-eidx="3"/><g transform="translate(85,131)" data-id="N1"><g fill="#1f883d" stroke="#1a7f37" stroke-width="2"><rect x="0" y="0" width="190" height="50" rx="25" ry="25"/></g><text x="95" y="29.5" text-anchor="middle" font-size="12" font-weight="600" fill="#ffffff">提交社保公积金办理申请</text></g><g transform="translate(426,111)" data-id="N2"><g fill="#fff8c5" stroke="#9a6700" stroke-width="1.5"><polygon points="98,0 196,45 98,90 0,45"/></g><text x="98" y="49.5" text-anchor="middle" font-size="11.5" font-weight="600" fill="#633c01">HR 专员：资料齐全且合规?</text></g><g transform="translate(436,253)" data-id="N3"><g fill="#fff1e5" stroke="#bc4c00" stroke-width="1.5"><rect x="0" y="0" width="176" height="54" rx="4"/></g><text x="88" y="31.5" text-anchor="middle" font-size="12" font-weight="600" fill="#571f00">HR 专员：增减员申报</text></g><g transform="translate(429,379)" data-id="N6"><g fill="#1f883d" stroke="#1a7f37" stroke-width="2"><rect x="0" y="0" width="190" height="50" rx="25" ry="25"/></g><text x="95" y="29.5" text-anchor="middle" font-size="12" font-weight="600" fill="#ffffff">HR 专员：办理结果反馈</text></g><g transform="translate(780,129)" data-id="N4"><g fill="#dafbe1" stroke="#1a7f37" stroke-width="1.5"><rect x="0" y="0" width="176" height="54" rx="4"/></g><text x="88" y="31.5" text-anchor="middle" font-size="12" font-weight="600" fill="#0a3d1e">薪酬专员：费用核算与扣缴</text></g><g transform="translate(1124,129)" data-id="N5"><g fill="#fbefff" stroke="#8250df" stroke-width="1.5"><rect x="0" y="0" width="176" height="54" rx="4"/></g><text x="88" y="31.5" text-anchor="middle" font-size="12" font-weight="600" fill="#3e1f6f">外部机构.受理办理</text></g><text x="50" y="24" font-size="15" font-weight="700" fill="#1f2328">社保公积金办理流程</text><text x="370" y="24" font-size="10.5" fill="#59636e">模式=swimlane</text></svg>