<svg xmlns="http://www.w3.org/2000/svg" viewBox="0 0 1048 784" width="1048" height="784" style="background:#ffffff;font-family:'Microsoft YaHei',system-ui,sans-serif"><defs><marker id="arr" viewBox="0 0 10 10" refX="9" refY="5" markerWidth="7" markerHeight="7" orient="auto-start-reverse"><path d="M0,0 L10,5 L0,10 z" fill="#59636e"/></marker></defs><rect x="50" y="50" width="260" height="684" fill="#ffffff" stroke="#59636e" stroke-width="1" opacity="0.55"/><rect x="50" y="50" width="260" height="44" fill="#0969da"/><text x="180" y="78" text-anchor="middle" font-size="13.5" font-weight="700" fill="#ffffff">采购部</text><rect x="394" y="50" width="260" height="684" fill="#ffffff" stroke="#59636e" stroke-width="1" opacity="0.55"/><rect x="394" y="50" width="260" height="44" fill="#bc4c00"/><text x="524" y="78" text-anchor="middle" font-size="13.5" font-weight="700" fill="#ffffff">品质部</text><rect x="738" y="50" width="260" height="684" fill="#ffffff" stroke="#59636e" stroke-width="1" opacity="0.55"/><rect x="738" y="50" width="260" height="44" fill="#1a7f37"/><text x="868" y="78" text-anchor="middle" font-size="13.5" font-weight="700" fill="#ffffff">仓储部</text><path d="M 275 156 L 352 156 L 352 156 L 436 156" fill="none" stroke="#59636e" stroke-width="1.4" marker-end="url(#arr)" data-edge="1" data-eidx="0"/><path d="M 612 156 L 696 156 L 696 156 L 780 156" fill="none" stroke="#59636e" stroke-width="1.4" marker-end="url(#arr)" data-edge="1" data-eidx="1"/><path d="M 780 156 L 696 156 L 696 280 L 278 280" fill="none" stroke="#59636e" stroke-width="1.4" stroke-dasharray="6 4" marker-end="url(#arr)" data-edge="1" data-eidx="2"/><path d="M 180 325 L 180 627" fill="none" stroke="#59636e" stroke-width="1.4" marker-end="url(#arr)" data-edge="1" data-eidx="3"/><text x="180" y="620" text-anchor="middle" font-size="10.5" fill="#59636e" paint-order="stroke" stroke="#ffffff" stroke-width="3">达标</text><path d="M 180 325 L 180 377" fill="none" stroke="#59636e" stroke-width="1.4" marker-end="url(#arr)" data-edge="1" data-eidx="4"/><text x="180" y="370" text-anchor="middle" font-size="10.5" fill="#59636e" paint-order="stroke" stroke="#ffffff" stroke-width="3">不达标</text><path d="M 180 431 L 180 501" fill="none" stroke="#59636e" stroke-width="1.4" marker-end="url(#arr)" data-edge="1" data-eidx="5"/><path d="M 180 555 L 180 627" fill="none" stroke="#59636e" stroke-width="1.4" marker-end="url(#arr)" data-edge="1" data-eidx="6"/><g transform="translate(0,0)" data-id="N1"><g fill="#1f883d" stroke="#1a7f37" stroke-width="2"><rect x="85" y="131" width="190" height="50" rx="25" ry="25"/></g><text x="180" y="160.5" text-anchor="middle" font-size="12" font-weight="600" fill="#ffffff">采购员：制定评估计划</text></g><g transform="translate(0,0)" data-id="N4"><g fill="#fff8c5" stroke="#9a6700" stroke-width="1.5"><polygon points="180,235 278,280 180,325 82,280"/></g><text x="180" y="284.5" text-anchor="middle" font-size="11.5" font-weight="600" fill="#633c01">采购经理：综合评分达标?</text></g><g transform="translate(0,0)" data-id="N5"><g fill="#ddf4ff" stroke="#0969da" stroke-width="1.5"><rect x="92" y="377" width="176" height="54" rx="4"/></g><text x="180" y="408.5" text-anchor="middle" font-size="12" font-weight="600" fill="#0a3069">采购员：整改要求下发</text></g><g transform="translate(0,0)" data-id="N6"><g fill="#ddf4ff" stroke="#0969da" stroke-width="1.5"><rect x="92" y="501" width="176" height="54" rx="4"/></g><text x="180" y="532.5" text-anchor="middle" font-size="12" font-weight="600" fill="#0a3069">采购员：淘汰或降级处理</text></g><g transform="translate(0,0)" data-id="N7"><g fill="#1f883d" stroke="#1a7f37" stroke-width="2"><rect x="85" y="627" width="190" height="50" rx="25" ry="25"/></g><text x="180" y="656.5" text-anchor="middle" font-size="12" font-weight="600" fill="#ffffff">采购经理：评估结果归档</text></g><g transform="translate(0,0)" data-id="N2"><g fill="#fff1e5" stroke="#bc4c00" stroke-width="1.5"><rect x="436" y="129" width="176" height="54" rx="4"/></g><text x="524" y="160.5" text-anchor="middle" font-size="12" font-weight="600" fill="#571f00">质量数据汇总</text></g><g transform="translate(0,0)" data-id="N3"><g fill="#dafbe1" stroke="#1a7f37" stroke-width="1.5"><rect x="780" y="129" width="176" height="54" rx="4"/></g><text x="868" y="160.5" text-anchor="middle" font-size="12" font-weight="600" fill="#0a3d1e">交期数据汇总</text></g><text x="50" y="24" font-size="15" font-weight="700" fill="#1f2328">供应商评估流程</text><text x="370" y="24" font-size="10.5" fill="#59636e">模式=swimlane</text></svg>